<svg xmlns="http://www.w3.org/2000/svg" viewBox="0 0 64 64">
  <!-- Outer ring -->
  <polygon points="32,2 44.5,5.5 54,13 60,25.5 60,38.5 54,51 44.5,58.5 32,62 19.5,58.5 10,51 4,38.5 4,25.5 10,13 19.5,5.5" fill="none" stroke="#c4923a" stroke-width="3" stroke-linejoin="miter"/>
  <!-- Inner ring -->
  <polygon points="32,14 39,17 46,23 50,32 46,41 39,47 32,50 25,47 18,41 14,32 18,23 25,17" fill="none" stroke="#c4923a" stroke-width="2.5" stroke-linejoin="miter"/>
  <!-- Cardinal spokes -->
  <line x1="32" y1="3" x2="32" y2="22" stroke="#c4923a" stroke-width="3.5"/>
  <line x1="32" y1="42" x2="32" y2="61" stroke="#c4923a" stroke-width="3.5"/>
  <line x1="3" y1="32" x2="22" y2="32" stroke="#c4923a" stroke-width="3.5"/>
  <line x1="42" y1="32" x2="61" y2="32" stroke="#c4923a" stroke-width="3.5"/>
  <!-- Diagonal spokes -->
  <line x1="11.5" y1="11.5" x2="24.5" y2="24.5" stroke="#c4923a" stroke-width="3"/>
  <line x1="52.5" y1="11.5" x2="39.5" y2="24.5" stroke="#c4923a" stroke-width="3"/>
  <line x1="11.5" y1="52.5" x2="24.5" y2="39.5" stroke="#c4923a" stroke-width="3"/>
  <line x1="52.5" y1="52.5" x2="39.5" y2="39.5" stroke="#c4923a" stroke-width="3"/>
  <!-- Center hub -->
  <polygon points="32,23 39,27 39,37 32,41 25,37 25,27" fill="none" stroke="#c4923a" stroke-width="2.5" stroke-linejoin="miter"/>
  <!-- Center diamond -->
  <polygon points="32,28 36,32 32,36 28,32" fill="#c4923a"/>
</svg>